PathFileType	4	(X/Y/Z)	jw_ngait_og1_rotated.trc
DataRate	CameraRate	NumFrames	NumMarkers	Units	OrigDataRate	OrigDataStartFrame	OrigNumFrames
120.000000	120.000000	8	56	mm	120.000000	205	327
Frame#	Times	Sternum			Neck			RShoulder			LShoulder			Xiphoid			Thoracic			RAsis			LAsis			RPsis			LPsis			Lumbar			RElbow			RWrist			RRadius			RUlna			LElbow			LWrist			LUlna			LRadius			LThighSuperior			LThighInferior			LThighLateral			LPatella			LShankSuperior			LShankInferior			LShankLateral			RThighSuperior			RThighInferior			RThighLateral			RPatella			RShankSuperior			RShankInferior			RShankLateral			RHeel			RToe			RMidfootMedial			RMidfootLateral			RHindfoot			RMidfootSuperior			RToeMedial			RToeLateral			LHeel			LToe			LMidfootMedial			LMidfootLateral			LHindfoot			LMidfootSuperior			LToeMedial			LToeLateral			LShoulderCenter			Oglobal			RShoulderCenter			Sacral			Xglobal			Yglobal			Zglobal			
		X1	Y1	Z1	X2	Y2	Z2	X3	Y3	Z3	X4	Y4	Z4	X5	Y5	Z5	X6	Y6	Z6	X7	Y7	Z7	X8	Y8	Z8	X9	Y9	Z9	X10	Y10	Z10	X11	Y11	Z11	X12	Y12	Z12	X13	Y13	Z13	X14	Y14	Z14	X15	Y15	Z15	X16	Y16	Z16	X17	Y17	Z17	X18	Y18	Z18	X19	Y19	Z19	X20	Y20	Z20	X21	Y21	Z21	X22	Y22	Z22	X23	Y23	Z23	X24	Y24	Z24	X25	Y25	Z25	X26	Y26	Z26	X27	Y27	Z27	X28	Y28	Z28	X29	Y29	Z29	X30	Y30	Z30	X31	Y31	Z31	X32	Y32	Z32	X33	Y33	Z33	X34	Y34	Z34	X35	Y35	Z35	X36	Y36	Z36	X37	Y37	Z37	X38	Y38	Z38	X39	Y39	Z39	X40	Y40	Z40	X41	Y41	Z41	X42	Y42	Z42	X43	Y43	Z43	X44	Y44	Z44	X45	Y45	Z45	X46	Y46	Z46	X47	Y47	Z47	X48	Y48	Z48	X49	Y49	Z49	X50	Y50	Z50	X51	Y51	Z51	X52	Y52	Z52	X53	Y53	Z53	X54	Y54	Z54	X55	Y55	Z55	X56	Y56	Z56	

205	2.6583	-441.45	1341.7	-123.64	-307.17	1455.8	-126.63	-367.4	1396.4	-302.76	-366.93	1406.9	59.634	-439.65	1226.6	-114.71	-219.19	1264.8	-110.62	-425.99	1002.4	-245.36	-416.02	990.54	25.209	-211.53	971.41	-134.13	-211.08	975.07	-74.968	-211.08	1042.8	-109.17	-322.34	1062.6	-379.41	-435.33	821.03	-362.41	-450.86	831.05	-327.32	-387.51	814.24	-358.91	-361.91	1084.7	162.54	-524.41	866.53	168.29	-479.4	843.21	165.41	-528.73	891.28	131.5	-352.64	814.14	66.567	-325.32	569.49	16.965	-401.9	678.35	2.6382	-352.85	494.24	-39.524	-287.07	423.01	5.3591	-236.73	171	-30.37	-294.12	292.32	-71.361	-422.32	815.79	-276.87	-575.94	622.55	-247.1	-562.17	724.93	-221.3	-632.27	561.27	-198.93	-542.39	423.8	-267.55	-582.48	193.09	-219.26	-610.54	299.87	-179.45	-515.75	58.918	-176.71	-805.11	122.4	-221.18	-733.03	99.568	-157.39	-703.52	95.799	-268.37	-631.01	59.28	-256.98	-668.42	156.18	-201.55	-771.25	104.37	-173.12	-761.16	108.67	-260.94	-128.75	51.97	-69.405	-426.96	53.241	-44.578	-339.75	25.962	-108.94	-323.2	34.486	14.306	-223.39	22.712	-1.64	-298.86	107.05	-57.09	-388.59	42.915	-85.983	-373.97	43.407	2.2639	-338.27	1362.6	51.341	0	0	0	-340.52	1353.1	-300.54	-211.31	973.24	-104.55	200	0	0	0	0	-200	0	200	0
206	2.6667	-451.47	1339.9	-124.07	-317.15	1453.8	-126.81	-376.88	1394.7	-302.96	-377.48	1405.3	59.338	-449.69	1224.8	-115.09	-229.3	1263	-110.61	-435.5	1000.6	-245.34	-426.44	988.93	25.006	-222.1	969.39	-133.74	-221.4	973.08	-74.925	-220.97	1040.7	-108.62	-331.37	1061	-379.71	-444.31	819.26	-362.92	-459.94	829.42	-327.83	-396.47	812.43	-359.68	-374.82	1083.4	163.05	-538.65	866.4	167.86	-493.8	842.74	165.64	-542.51	891.18	131.08	-360.68	812.91	67.017	-328.99	569.02	16.593	-407.23	676.46	3.0447	-355.85	493.43	-39.645	-289.22	423.13	4.891	-237.74	171.13	-30.762	-295.92	292.15	-71.377	-431.28	813.36	-277.25	-583.18	619.01	-247.86	-570.3	721.09	-221.75	-639.61	560.44	-200.28	-555.35	419.21	-267.1	-608.94	190.9	-219.63	-632.07	299.1	-180.47	-550.86	53.017	-175.86	-835.34	132.78	-225.16	-765.57	106.63	-159.68	-735.05	99.773	-270.24	-665.07	59.065	-257.71	-697.3	158.85	-203.7	-803.34	112.95	-176.6	-791.91	115.97	-264.05	-128.9	52.287	-69.443	-427.02	53.059	-44.573	-339.82	25.579	-108.94	-323.29	34.198	14.295	-223.26	22.742	-1.7282	-299.18	106.82	-57.129	-388.57	42.715	-85.962	-374.04	43.157	2.3915	-348.8	1360.8	51.207	0	0	0	-350.01	1351.2	-300.67	-221.75	971.23	-104.33	200	0	0	0	0	-200	0	200	0
207	2.675	-461.53	1338	-124.46	-327.38	1451.8	-126.89	-386.57	1392.7	-303.32	-388.05	1403.5	58.982	-459.89	1222.8	-115.44	-239.34	1260.9	-110.89	-445.47	998.67	-245.47	-436.89	987.32	24.777	-232.57	967.15	-133.83	-232.09	970.93	-74.924	-231.08	1038.5	-108.5	-340.57	1059.2	-380.1	-453.33	817.31	-363.52	-469.02	827.52	-328.48	-405.49	810.62	-360.16	-387.45	1082.1	163.41	-552.89	866.26	167.37	-508.4	842.03	166.26	-556.13	890.85	130.44	-368.57	811.81	67.162	-332.86	568.46	16.24	-413.15	675.23	2.998	-359.38	492.75	-39.905	-291.57	423.18	4.4095	-238.42	171.29	-31.385	-297.74	291.97	-71.4	-440.16	810.7	-277.81	-590.21	615.06	-248.8	-578.31	716.87	-222.25	-646.62	559.05	-201.51	-568.05	414.65	-266.48	-634.84	189.46	-220.66	-652.98	298.7	-181.75	-585.58	48.218	-175.27	-864.36	143.59	-229.33	-797.09	114.12	-162.75	-765.5	104.28	-272.78	-698.1	59.864	-258.75	-725.47	161.97	-206.36	-834.21	122.6	-180.41	-821.35	124.07	-267.63	-129.22	52.827	-69.323	-426.32	53.094	-44.8	-339.99	25.486	-109.23	-323.68	33.852	14.055	-223.17	22.676	-1.8915	-299.55	106.68	-57.158	-388.69	42.513	-85.899	-374.18	42.937	2.5236	-359.28	1358.9	51.069	0	0	0	-359.64	1349.2	-300.81	-232.33	969.04	-104.38	200	0	0	0	0	-200	0	200	0
208	2.6833	-471.78	1335.7	-124.94	-337.43	1449.5	-127.31	-396.34	1390.7	-303.69	-398.6	1401.5	58.42	-470.1	1220.7	-115.78	-249.63	1258.6	-111.05	-456	996.45	-245.58	-447.44	985.39	24.534	-243.18	964.77	-133.98	-242.75	968.57	-75.001	-241.55	1036.1	-108.72	-349.53	1057.1	-380.52	-462.11	815.19	-364.22	-477.69	825.15	-328.94	-413.94	808.93	-361.04	-399.98	1080.5	163.6	-566.86	865.6	166.67	-522.21	841.27	165.67	-569.61	890.16	129.66	-376.75	810.67	67.417	-336.94	567.96	15.764	-419.37	673.42	3.1262	-362.75	491.77	-40.217	-294.11	423.31	3.8746	-238.62	173.05	-30.302	-299.85	291.83	-71.562	-449.57	807.57	-278.36	-596.86	610.91	-249.54	-585.87	712.09	-222.39	-652.98	557.14	-202.17	-580.23	410.21	-265.94	-659.79	188.86	-222.05	-673.44	298.81	-183.04	-619.47	44.822	-175.01	-891.44	154.63	-233.81	-827.14	122.47	-165.98	-794.81	109.48	-275.47	-730.07	61.507	-260.03	-752.35	165.62	-209.23	-863.56	132.68	-184.25	-849.28	132.19	-271.06	-129.45	53.25	-69.501	-427.15	52.469	-44.354	-340.13	25.018	-109.18	-323.74	33.542	14.079	-223.36	22.787	-1.918	-300.02	106.43	-57.208	-388.84	42.35	-85.876	-374.21	42.646	2.5954	-369.91	1356.6	50.794	0	0	0	-369.51	1346.8	-301.08	-242.96	966.67	-104.49	200	0	0	0	0	-200	0	200	0
209	2.6917	-482.03	1333.3	-125.42	-347.51	1447	-127.59	-406.02	1388.4	-304.21	-409.12	1399.4	57.994	-480.34	1218.3	-116.15	-259.81	1256.1	-111.43	-466.78	994.35	-245.78	-458	983.37	24.335	-254.04	962	-134.16	-253.45	965.93	-75.409	-252.08	1033.4	-109.14	-358.69	1055	-381.01	-470.98	812.83	-365.06	-486.44	822.62	-329.96	-421.76	806.87	-361.95	-412.84	1078.6	163.58	-580.84	864.82	165.86	-536.55	839.88	164.77	-582.94	889.51	128.97	-385.01	809.42	67.396	-341.38	567.29	15.287	-425.64	671.48	3.6236	-366.52	491.29	-40.066	-296.74	423.87	3.6662	-239.69	172.54	-30.792	-302.18	291.51	-71.732	-458.81	804.32	-279.12	-602.74	606.28	-249.45	-593.67	707.35	-222.65	-659.39	555	-202.63	-592.06	405.83	-265.27	-683.66	188.68	-223.45	-692.87	299.48	-184.55	-651.97	42.889	-175.18	-917.46	165.31	-238.06	-855.56	130.97	-169.44	-822.69	115.17	-278.39	-760.02	63.909	-261.3	-778.03	169.66	-212.19	-891.14	142.84	-188.03	-876.19	140.62	-274.2	-129.72	53.724	-69.679	-427.76	51.949	-44.078	-340.26	24.523	-109.42	-323.93	32.991	13.858	-223.02	22.624	-2.205	-300.48	106.05	-57.352	-389.17	42.107	-85.74	-374.34	42.475	2.6859	-380.55	1354.2	50.549	0	0	0	-379.33	1344.3	-301.32	-253.75	963.97	-104.78	200	0	0	0	0	-200	0	200	0
210	2.7	-492.2	1330.9	-125.97	-357.66	1444.4	-128.07	-416.21	1385.9	-304.62	-419.61	1397.1	57.315	-490.76	1215.9	-116.58	-270.08	1253.3	-111.87	-477.7	991.82	-245.86	-468.78	981.27	24.049	-264.91	959.25	-134.58	-264.38	963.21	-75.712	-262.84	1030.6	-109.53	-367.9	1052.6	-381.59	-479.66	810.14	-365.93	-495.54	820.18	-330.79	-431.39	804.04	-362.65	-425.3	1076.6	163.59	-594.61	863.85	165.11	-550.43	838.7	164.48	-596.09	888.35	128.05	-393.52	808.08	67.581	-346.06	566.73	14.852	-432.79	669.54	4.1541	-370.76	489.75	-40.693	-299.88	423.88	3.1757	-240.59	172.43	-31.918	-304.5	291.26	-72.013	-468.26	800.87	-279.61	-609.5	602.15	-249.75	-601.36	702.42	-222.47	-665.76	552.84	-202.63	-603.88	401.94	-264.63	-706.56	189.53	-225.18	-711.26	300.28	-185.85	-682.2	42.026	-176.53	-941.69	175.88	-242.14	-881.73	139.01	-172.26	-849.22	120.87	-280.96	-789.12	66.796	-263.53	-802.42	173.87	-215.03	-916.81	152.43	-191.51	-901.16	148.85	-278.16	-129.8	54.251	-69.888	-427.88	51.737	-43.94	-340.23	23.949	-109.43	-323.83	32.566	13.824	-223.17	22.833	-2.3381	-300.94	105.74	-57.435	-389.59	42.198	-85.755	-374.64	42.21	2.8455	-390.85	1351.8	50.076	0	0	0	-389.34	1341.6	-301.79	-264.64	961.23	-105.14	200	0	0	0	0	-200	0	200	0
211	2.7083	-502.62	1328.1	-126.64	-367.75	1441.7	-128.64	-426.45	1383.2	-305.13	-430.03	1394.6	56.571	-500.99	1213.2	-116.99	-280.47	1250.5	-112.4	-488.52	989.43	-246.06	-479.5	979.03	23.85	-275.89	956.12	-135.1	-275.28	960.24	-76.415	-273.45	1027.5	-109.87	-377.2	1050	-382.2	-488.41	807.3	-366.87	-504.29	817.26	-331.84	-440.18	801.34	-363.38	-437.69	1074.5	163.38	-608.29	862.74	164.29	-564.26	837.23	163.8	-609.65	887.21	127.22	-402.07	806.57	67.726	-351.12	565.97	14.466	-440.61	667.22	5.6014	-375.42	488.76	-40.911	-303.47	423.69	2.5766	-241.4	172.53	-32.428	-307.16	290.89	-72.244	-477.8	797.65	-280.13	-616.36	597.74	-249.6	-609.22	697.7	-222.21	-672.61	550.51	-201.94	-615.96	398.61	-263.98	-728.09	190.53	-226.71	-728.63	301.24	-186.84	-710.1	41.907	-178.37	-964.37	184.99	-245.06	-905.83	146.38	-174.84	-873.88	126.54	-283.41	-816.15	70.693	-265.71	-825.33	178.19	-217.69	-940.42	161.14	-194.5	-924.75	156.7	-281.21	-130.07	54.797	-70.129	-428.05	51.405	-43.904	-340.39	23.551	-109.49	-323.95	32.39	13.747	-223.07	22.977	-2.4544	-301.34	105.55	-57.624	-389.4	41.776	-85.61	-374.69	42.168	3.1098	-401.34	1349	49.443	0	0	0	-399.65	1338.7	-302.41	-275.59	958.18	-105.76	200	0	0	0	0	-200	0	200	0
212	2.7167	-513.04	1325.5	-127.28	-377.96	1438.7	-129.4	-436.76	1380.5	-305.84	-440.48	1392	55.679	-511.35	1210.5	-117.47	-290.7	1247.5	-113.11	-499.53	986.66	-246.32	-490.42	976.69	23.565	-286.89	953	-135.92	-286.24	957.22	-76.979	-284.3	1024.4	-110.31	-386.68	1047.3	-383.03	-496.93	804.32	-367.89	-513	814.14	-332.86	-449.04	798.35	-364.2	-449.92	1072.2	163.11	-621.82	861.35	163.37	-577.86	835.65	163.16	-622.69	885.87	126.14	-410.92	804.75	67.567	-356.71	565.17	14.036	-446.78	665.11	5.4731	-380.23	487.64	-41.183	-307.22	423.58	1.805	-242.43	172.67	-32.791	-309.93	290.28	-72.494	-487.09	793.95	-280.97	-623.85	593.37	-248.75	-617.32	693.58	-221.67	-680.51	548.27	-201.08	-628.38	395.88	-263.87	-748.04	191.9	-228.43	-745.09	302.27	-187.56	-735.51	42.512	-180.9	-984.98	193.57	-247.2	-927.95	152.92	-177.03	-896.44	132.76	-285.67	-840.16	74.718	-268.07	-846.25	182.25	-219.49	-961.82	168.72	-196.59	-946.11	164.04	-283.32	-130.25	55.383	-70.449	-428.14	51.106	-43.819	-340.45	22.945	-109.47	-323.9	32.166	13.72	-223.1	23.187	-2.489	-301.85	105.3	-57.849	-389.71	41.742	-85.79	-374.77	41.876	3.1073	-411.79	1346.2	48.851	0	0	0	-409.96	1335.8	-303	-286.56	955.11	-106.45	200	0	0	0	0	-200	0	200	0
